# xmcd
# 
# Track frame offsets:
#     150
#     23575
#     54652
#     81987
#     107657
#     137125
#     161000
#     188497
#     217240
# 
# Disc length: 3228
# 
# Revision: 11
# Processed by: cddbd v1.5.2PL0 Copyright (c) Steve Scherf et al.
# Submitted via: fre:ac v1.0.31
# 
DISCID=790c9a09
DTITLE=T-SQUARE - IMPRESSIVE
DYEAR=1992
DGENRE=Fusion
TTITLE0=FACES
TTITLE1=11月の雨
TTITLE2=RISE
TTITLE3=MAC'S BACK
TTITLE4=Broken Promise
TTITLE5=Dandelion Hill
TTITLE6=Traffic Jam
TTITLE7=AMARANTH
TTITLE8=待ちぼうけの午後
EXTD=YEAR: 1992
EXTT0=
EXTT1=
EXTT2=
EXTT3=
EXTT4=
EXTT5=
EXTT6=
EXTT7=
EXTT8=
PLAYORDER=
